<svg xmlns="http://www.w3.org/2000/svg"
    xmlns:xlink="http://www.w3.org/1999/xlink"
    width="600"
    height="400">

<style type="text/css"><![CDATA[
  .employees_edge {
    stroke: #2CA02C;
    stroke-width: 5;
    stroke-opacity: 0.7;
    fill: none;
  }
  .salaries_edge {
    stroke: #1F77B4;
    stroke-width: 5;
    stroke-opacity: 0.7;
    fill: none;
  }
  .selected_fill {
    fill: #FF7F0E;
    fill-opacity: 0.2;
  }
  .selected_fill_over {
    fill: #CC4C00;
    fill-opacity: 0.4;
  }
  .no_fill {
    fill: #FF7F0E;
    fill-opacity: 0.0;
  }
  .table_name {
    font-size: 1.2em;
    font-weight: bold;
  }
  .end {
    text-anchor: end;
  }
  .beg {
    text-anchor: start;
  }
  .text {
    font-size: 1em;
    text-anchor: middle;
  }
  .selected_text {
    font-size: 1em;
    font-weight: bold;
  }
  .selected_text_over {
    font-size: 1.1em;
    font-weight: bold;
  }
]]></style>

<!-- ARCs -->
<!--inner left -->
<path d="M350,100  A150,150 0 0,0 350,350" class="salaries_edge"/>

<!-- outer left --> 
<path d="M350,100  A150,150 0 1,0 350,350" class="employees_edge"/>

<!-- outer right -->  
<path d="M350,100  A150,150 0 1,1 350,350" class="salaries_edge"/>

<!-- inner right-->
<path d="M350,100  A150,150 0 0,1 350,350" class="employees_edge"/>

<!-- FILLs -->
<!--fill intersection -->
<path d="M350,100
         A150,150 0 0,0 350,350
         A150,150 0 0,0 350,100
         Z"
    class="selected_fill" id="fill1"/>

<!--fill left -->
<path d="M350,100
         A150,150 0 0,0 350,350
         A150,150 0 1,1 350,100
         Z"
    class="selected_fill" id="fill2"/>

<!--fill right -->
<path d="M350,100
         A150,150 0 0,1 350,350
         A150,150 0 1,0 350,100
         Z"
    class="no_fill" id="fill3"/>

<!-- TEXT -->
<!-- small_employees -->
 <text x="300" y="50" class="table_name end">small_employees</text>

<!-- small_salaries -->
 <text x="400" y="50" class="table_name beg">small_salaries</text>  

<!-- only small_employees -->
 <text id="text1" x="200" y="225" class="text selected_text">
   237542
 </text>  

<!-- both  -->
<text id="text2" x="350" y="200" class="text selected_text">
  47978
</text>    

<text id="text3" x="350" y="250" class="text selected_text">
  254466 
</text>    

<!-- only small_salries -->
 <text id="text4" x="500" y="225" class="text">
   253939
 </text> 

<script type="text/ecmascript"><![CDATA[
  var fills = ["fill1", "fill2"],
    num_fills = fills.length;
    fill_els = []
    texts = ["text1", "text2", "text3"],
    num_texts = texts.length
    text_els = [];

  var curr_el;
  // fills
  for (var i=0; i < num_fills; i++) {
    curr_el = document.getElementById(fills[i]);
    curr_el.addEventListener("mouseover", increase_opacity);
    curr_el.addEventListener("mouseleave", decrease_opacity);
    fill_els.push(curr_el);
  };
  
  // texts
  for (var i=0; i < num_texts; i++) {
    curr_el = document.getElementById(texts[i]);
    curr_el.addEventListener("mouseover", increase_opacity);
    curr_el.addEventListener("mouseleave", decrease_opacity);
    text_els.push(curr_el);
  };
  
  function decrease_opacity() {
    for (var i=0; i < num_fills; i++) {
      fill_els[i].classList.add('selected_fill');
      fill_els[i].classList.remove('selected_fill_over');
    };

    for (var i=0; i < num_texts; i++) {
      text_els[i].classList.add('selected_text');
      text_els[i].classList.remove('selected_text_over');
    };
  };
  
  function increase_opacity() {
    for (var i=0; i < num_fills; i++) {
      fill_els[i].classList.remove('selected_fill');
      fill_els[i].classList.add('selected_fill_over');
    };
    
    for (var i=0; i < num_texts; i++) {
      text_els[i].classList.remove('selected_text');
      text_els[i].classList.add('selected_text_over');
    };
  };

]]></script>

</svg>
